<svg data-v-0dd9719b="" version="1.0" xmlns="http://www.w3.org/2000/svg" width="100%" height="100%"
     viewBox="0 0 340.000000 250.000000" preserveAspectRatio="xMidYMid meet" color-interpolation-filters="sRGB"
     style="margin: auto;"> <rect data-v-0dd9719b="" x="0" y="0" width="100%" height="100%" fill="#ffffff" fill-opacity="1" class="background"></rect> <!----> <g data-v-0dd9719b="" fill="#35495e" class="iconbordersvg" transform="translate(18.274993896484375,97)"><g data-gra="graph-icon-name"><g><rect data-gra="graph-name-bg" stroke-width="0" class="i-icon-bg" x="0" y="0" width="303.45001220703125" height="56" fill-opacity="0" stroke="rgb(53, 73, 94)"></rect> <!----> <!----> </g> <g transform="translate(0,0)"><g hollow-target="black" data-gra="graph-icon" transform="translate(247.4499969482422,0)" mask="url(#99e59120-230d-49f2-8920-ff611ce4fc88)"><g><rect data-gra="graph-name-bg" stroke-width="2" class="i-icon-bg" fill="#41b883" x="0" y="0" width="56" height="56" fill-opacity="1"></rect> <!----> <!----> </g> <g transform="translate(5,5)"><g class="iconsvg-imagesvg"><g><!----> <svg filter="url(#colors1975497681)" x="0" y="0" width="46" height="46" filtersec="colorsb1291080447" class="image-svg-svg primary" style="overflow: visible;"><svg xmlns="http://www.w3.org/2000/svg" viewBox="0 0 68.1 68.1"><path d="M66.1 66.1H2V2h64.1v64.1zM2 23.4h10.7V2M2 34.1h21.4V2M2 44.7h32.1V2M2 55.4h42.7V2m10.7 0v64.1" fill="none" stroke="#333" stroke-width="4" stroke-miterlimit="10"></path></svg></svg> <defs><filter id="colors1975497681"><feColorMatrix type="matrix" values="0 0 0 0 0.25390625  0 0 0 0 0.71875  0 0 0 0 0.51171875  0 0 0 1 0" class="icon-fecolormatrix"></feColorMatrix></filter> <filter id="colorsf9028351520"><feColorMatrix type="matrix" values="0 0 0 0 0.99609375  0 0 0 0 0.99609375  0 0 0 0 0.99609375  0 0 0 1 0" class="icon-fecolormatrix"></feColorMatrix></filter> <filter id="colorsb1291080447"><feColorMatrix type="matrix" values="0 0 0 0 0  0 0 0 0 0  0 0 0 0 0  0 0 0 1 0" class="icon-fecolormatrix"></feColorMatrix></filter></defs></g></g></g></g> <g data-gra="graph-name" transform="translate(0,0)" mask="url(#420e5dd7-0001-4ef5-910f-5d95b665491b)"><g><rect data-gra="graph-name-bg" stroke-width="2" class="i-icon-bg" x="0" y="0" width="245.4499969482422" height="56" fill-opacity="1"></rect> <!----> <!----> </g> <g transform="translate(5,16.227713584899902)"><g data-gra="path-name" fill-rule="" class="tp-name"><g transform="scale(1)"><g><path d="M22.21-3.93L22.21 0 4.27 0Q3.84 0 3.48-0.15 3.12-0.3 2.85-0.57 2.59-0.83 2.44-1.2 2.28-1.56 2.28-1.98L2.28-1.98 2.28-21.7 6.22-21.7 6.22-3.93 22.21-3.93ZM28.66-23.27L28.66-19.72 24.73-19.72 24.73-23.27 28.66-23.27ZM28.66-16.36L28.66 0 24.73 0 24.73-16.36 28.66-16.36ZM47.3-16.36L47.3-12.42 40.43-12.42 40.43 0 36.45 0 36.45-12.42 31.34-12.42 31.34-16.36 36.45-16.36 36.45-21.7 40.43-21.7 40.43-16.36 47.3-16.36ZM67.43-10.94L67.43-10.94Q67.43-10.12 67.14-9.18 66.85-8.23 66.21-7.42 65.57-6.61 64.53-6.07 63.49-5.52 62.01-5.52L62.01-5.52 54.91-5.52 54.91-9.26 62.01-9.26Q62.81-9.26 63.25-9.75 63.69-10.24 63.69-10.97L63.69-10.97Q63.69-11.74 63.2-12.18 62.71-12.62 62.01-12.62L62.01-12.62 54.91-12.62Q54.11-12.62 53.67-12.13 53.23-11.64 53.23-10.91L53.23-10.91 53.23-5.42Q53.23-4.63 53.73-4.19 54.22-3.75 54.94-3.75L54.94-3.75 62.01-3.75 62.01 0 54.91 0Q54.1 0 53.15-0.29 52.2-0.58 51.39-1.22 50.59-1.86 50.04-2.9 49.5-3.93 49.5-5.42L49.5-5.42 49.5-10.94Q49.5-11.76 49.78-12.7 50.07-13.65 50.71-14.46 51.36-15.27 52.39-15.81 53.43-16.36 54.91-16.36L54.91-16.36 62.01-16.36Q62.83-16.36 63.77-16.07 64.72-15.78 65.53-15.14 66.34-14.5 66.88-13.46 67.43-12.42 67.43-10.94ZM94.23-21.7L98.22-21.7 94.59-1.36Q94.47-0.76 94.04-0.32 93.62 0.12 93.01 0.24L93.01 0.24Q92.39 0.35 91.84 0.11 91.29-0.14 90.97-0.65L90.97-0.65 83.77-12.48 76.55-0.65Q76.29-0.21 75.85 0.03 75.4 0.27 74.89 0.27L74.89 0.27Q74.18 0.27 73.63-0.18 73.09-0.64 72.97-1.36L72.97-1.36 69.3-21.7 73.3-21.7 75.9-7.37 82.1-17.27Q82.36-17.7 82.81-17.95 83.25-18.19 83.77-18.19L83.77-18.19Q84.28-18.19 84.72-17.95 85.16-17.7 85.45-17.27L85.45-17.27 91.62-7.37 94.23-21.7ZM118.51-10.85L118.51-5.52Q118.51-4.51 118.25-3.7 118-2.89 117.57-2.28 117.15-1.66 116.59-1.23 116.03-0.8 115.42-0.53 114.8-0.26 114.18-0.13 113.55 0 112.99 0L112.99 0 105.89 0Q105.07 0 104.11-0.29 103.14-0.58 102.31-1.23 101.49-1.89 100.94-2.94 100.38-3.99 100.38-5.52L100.38-5.52 100.38-10.85Q100.38-12.36 100.94-13.41 101.49-14.47 102.31-15.12 103.14-15.78 104.11-16.07 105.07-16.36 105.89-16.36L105.89-16.36 112.99-16.36Q114.5-16.36 115.56-15.81 116.62-15.27 117.27-14.44 117.92-13.62 118.22-12.65 118.51-11.68 118.51-10.85L118.51-10.85ZM114.58-5.52L114.58-10.82Q114.58-11.64 114.17-12.03 113.76-12.42 112.99-12.42L112.99-12.42 105.92-12.42Q105.14-12.42 104.73-12.02 104.32-11.62 104.32-10.85L104.32-10.85 104.32-5.52Q104.32-4.75 104.73-4.34 105.14-3.93 105.92-3.93L105.92-3.93 112.99-3.93Q113.79-3.93 114.18-4.34 114.58-4.75 114.58-5.52L114.58-5.52ZM136.17-16.36L136.17-12.42 127.32-12.42Q126.52-12.42 126.11-12.02 125.7-11.62 125.7-10.85L125.7-10.85 125.7 0 121.76 0 121.76-10.85Q121.76-11.86 122.02-12.67 122.28-13.47 122.71-14.08 123.14-14.69 123.7-15.12 124.26-15.56 124.87-15.83 125.49-16.1 126.12-16.23 126.74-16.36 127.29-16.36L127.29-16.36 136.17-16.36ZM145.95-3.93L145.95 0 144.19 0Q143.34 0 142.38-0.29 141.42-0.58 140.59-1.23 139.76-1.89 139.21-2.94 138.67-3.99 138.67-5.52L138.67-5.52 138.67-23.27 142.6-23.27 142.6-5.52Q142.6-4.8 143.06-4.37 143.51-3.93 144.19-3.93L144.19-3.93 145.95-3.93ZM166.42-23.27L166.42-5.52Q166.42-4.51 166.16-3.7 165.9-2.89 165.48-2.28 165.06-1.66 164.5-1.23 163.94-0.8 163.32-0.53 162.71-0.26 162.08-0.13 161.46 0 160.9 0L160.9 0 153.8 0Q152.78 0 151.98-0.26 151.18-0.51 150.57-0.95 149.96-1.38 149.52-1.94 149.09-2.5 148.82-3.11 148.55-3.72 148.42-4.35 148.29-4.98 148.29-5.52L148.29-5.52 148.29-10.85Q148.29-12.36 148.84-13.41 149.4-14.47 150.22-15.12 151.04-15.78 152.01-16.07 152.98-16.36 153.8-16.36L153.8-16.36 160.9-16.36 160.9-12.42 153.83-12.42Q153.04-12.42 152.63-12.02 152.22-11.62 152.22-10.85L152.22-10.85 152.22-5.55Q152.22-4.75 152.63-4.34 153.03-3.93 153.8-3.93L153.8-3.93 160.9-3.93Q161.7-3.93 162.09-4.34 162.48-4.75 162.48-5.52L162.48-5.52 162.48-23.27 166.42-23.27ZM188.45-12.83L188.45-8.87 176.03-8.87 176.03-12.83 188.45-12.83ZM190.22-3.93L190.22 0 176.03 0Q175.21 0 174.24-0.29 173.27-0.58 172.45-1.23 171.62-1.89 171.07-2.94 170.52-3.99 170.52-5.52L170.52-5.52 170.52-19.72Q170.52-20.13 170.67-20.49 170.82-20.85 171.09-21.12 171.35-21.4 171.71-21.55 172.08-21.7 172.5-21.7L172.5-21.7 190.22-21.7 190.22-17.76 174.45-17.76 174.45-5.52Q174.45-4.75 174.86-4.34 175.27-3.93 176.06-3.93L176.06-3.93 190.22-3.93ZM211.34-23.27L211.34-5.52Q211.34-4.51 211.09-3.7 210.83-2.89 210.41-2.28 209.98-1.66 209.42-1.23 208.86-0.8 208.25-0.53 207.64-0.26 207.01-0.13 206.38 0 205.82 0L205.82 0 198.72 0Q197.71 0 196.91-0.26 196.11-0.51 195.49-0.95 194.88-1.38 194.45-1.94 194.02-2.5 193.75-3.11 193.47-3.72 193.35-4.35 193.22-4.98 193.22-5.52L193.22-5.52 193.22-10.85Q193.22-12.36 193.77-13.41 194.32-14.47 195.15-15.12 195.97-15.78 196.94-16.07 197.91-16.36 198.72-16.36L198.72-16.36 205.82-16.36 205.82-12.42 198.75-12.42Q197.97-12.42 197.56-12.02 197.15-11.62 197.15-10.85L197.15-10.85 197.15-5.55Q197.15-4.75 197.55-4.34 197.95-3.93 198.72-3.93L198.72-3.93 205.82-3.93Q206.62-3.93 207.02-4.34 207.41-4.75 207.41-5.52L207.41-5.52 207.41-23.27 211.34-23.27ZM219.09-23.27L219.09-19.72 215.16-19.72 215.16-23.27 219.09-23.27ZM219.09-16.36L219.09 0 215.16 0 215.16-16.36 219.09-16.36ZM237.73-16.36L237.73-12.42 230.86-12.42 230.86 0 226.88 0 226.88-12.42 221.77-12.42 221.77-16.36 226.88-16.36 226.88-21.7 230.86-21.7 230.86-16.36 237.73-16.36Z" transform="translate(-2.2799999713897705, 23.270000457763672)"></path></g> <!----> <!----> <!----> <!----> <!----> <!----> <!----></g></g> <!----></g></g></g></g></g><mask id="420e5dd7-0001-4ef5-910f-5d95b665491b"><g fill="white"><rect data-gra="graph-name-bg" stroke-width="2" class="i-icon-bg" x="0" y="0" width="245.4499969482422" height="56" fill-opacity="1"></rect>   </g> <g transform="translate(5,16.227713584899902)" fill="black"><g data-gra="path-name" fill-rule="" class="tp-name"><g transform="scale(1)"><g><path d="M22.21-3.93L22.21 0 4.27 0Q3.84 0 3.48-0.15 3.12-0.3 2.85-0.57 2.59-0.83 2.44-1.2 2.28-1.56 2.28-1.98L2.28-1.98 2.28-21.7 6.22-21.7 6.22-3.93 22.21-3.93ZM28.66-23.27L28.66-19.72 24.73-19.72 24.73-23.27 28.66-23.27ZM28.66-16.36L28.66 0 24.73 0 24.73-16.36 28.66-16.36ZM47.3-16.36L47.3-12.42 40.43-12.42 40.43 0 36.45 0 36.45-12.42 31.34-12.42 31.34-16.36 36.45-16.36 36.45-21.7 40.43-21.7 40.43-16.36 47.3-16.36ZM67.43-10.94L67.43-10.94Q67.43-10.12 67.14-9.18 66.85-8.23 66.21-7.42 65.57-6.61 64.53-6.07 63.49-5.52 62.01-5.52L62.01-5.52 54.91-5.52 54.91-9.26 62.01-9.26Q62.81-9.26 63.25-9.75 63.69-10.24 63.69-10.97L63.69-10.97Q63.69-11.74 63.2-12.18 62.71-12.62 62.01-12.62L62.01-12.62 54.91-12.62Q54.11-12.62 53.67-12.13 53.23-11.64 53.23-10.91L53.23-10.91 53.23-5.42Q53.23-4.63 53.73-4.19 54.22-3.75 54.94-3.75L54.94-3.75 62.01-3.75 62.01 0 54.91 0Q54.1 0 53.15-0.29 52.2-0.58 51.39-1.22 50.59-1.86 50.04-2.9 49.5-3.93 49.5-5.42L49.5-5.42 49.5-10.94Q49.5-11.76 49.78-12.7 50.07-13.65 50.71-14.46 51.36-15.27 52.39-15.81 53.43-16.36 54.91-16.36L54.91-16.36 62.01-16.36Q62.83-16.36 63.77-16.07 64.72-15.78 65.53-15.14 66.34-14.5 66.88-13.46 67.43-12.42 67.43-10.94ZM94.23-21.7L98.22-21.7 94.59-1.36Q94.47-0.76 94.04-0.32 93.62 0.12 93.01 0.24L93.01 0.24Q92.39 0.35 91.84 0.11 91.29-0.14 90.97-0.65L90.97-0.65 83.77-12.48 76.55-0.65Q76.29-0.21 75.85 0.03 75.4 0.27 74.89 0.27L74.89 0.27Q74.18 0.27 73.63-0.18 73.09-0.64 72.97-1.36L72.97-1.36 69.3-21.7 73.3-21.7 75.9-7.37 82.1-17.27Q82.36-17.7 82.81-17.95 83.25-18.19 83.77-18.19L83.77-18.19Q84.28-18.19 84.72-17.95 85.16-17.7 85.45-17.27L85.45-17.27 91.62-7.37 94.23-21.7ZM118.51-10.85L118.51-5.52Q118.51-4.51 118.25-3.7 118-2.89 117.57-2.28 117.15-1.66 116.59-1.23 116.03-0.8 115.42-0.53 114.8-0.26 114.18-0.13 113.55 0 112.99 0L112.99 0 105.89 0Q105.07 0 104.11-0.29 103.14-0.58 102.31-1.23 101.49-1.89 100.94-2.94 100.38-3.99 100.38-5.52L100.38-5.52 100.38-10.85Q100.38-12.36 100.94-13.41 101.49-14.47 102.31-15.12 103.14-15.78 104.11-16.07 105.07-16.36 105.89-16.36L105.89-16.36 112.99-16.36Q114.5-16.36 115.56-15.81 116.62-15.27 117.27-14.44 117.92-13.62 118.22-12.65 118.51-11.68 118.51-10.85L118.51-10.85ZM114.58-5.52L114.58-10.82Q114.58-11.64 114.17-12.03 113.76-12.42 112.99-12.42L112.99-12.42 105.92-12.42Q105.14-12.42 104.73-12.02 104.32-11.62 104.32-10.85L104.32-10.85 104.32-5.52Q104.32-4.75 104.73-4.34 105.14-3.93 105.92-3.93L105.92-3.93 112.99-3.93Q113.79-3.93 114.18-4.34 114.58-4.75 114.58-5.52L114.58-5.52ZM136.17-16.36L136.17-12.42 127.32-12.42Q126.52-12.42 126.11-12.02 125.7-11.62 125.7-10.85L125.7-10.85 125.7 0 121.76 0 121.76-10.85Q121.76-11.86 122.02-12.67 122.28-13.47 122.71-14.08 123.14-14.69 123.7-15.12 124.26-15.56 124.87-15.83 125.49-16.1 126.12-16.23 126.74-16.36 127.29-16.36L127.29-16.36 136.17-16.36ZM145.95-3.93L145.95 0 144.19 0Q143.34 0 142.38-0.29 141.42-0.58 140.59-1.23 139.76-1.89 139.21-2.94 138.67-3.99 138.67-5.52L138.67-5.52 138.67-23.27 142.6-23.27 142.6-5.52Q142.6-4.8 143.06-4.37 143.51-3.93 144.19-3.93L144.19-3.93 145.95-3.93ZM166.42-23.27L166.42-5.52Q166.42-4.51 166.16-3.7 165.9-2.89 165.48-2.28 165.06-1.66 164.5-1.23 163.94-0.8 163.32-0.53 162.71-0.26 162.08-0.13 161.46 0 160.9 0L160.9 0 153.8 0Q152.78 0 151.98-0.26 151.18-0.51 150.57-0.95 149.96-1.38 149.52-1.94 149.09-2.5 148.82-3.11 148.55-3.72 148.42-4.35 148.29-4.98 148.29-5.52L148.29-5.52 148.29-10.85Q148.29-12.36 148.84-13.41 149.4-14.47 150.22-15.12 151.04-15.78 152.01-16.07 152.98-16.36 153.8-16.36L153.8-16.36 160.9-16.36 160.9-12.42 153.83-12.42Q153.04-12.42 152.63-12.02 152.22-11.62 152.22-10.85L152.22-10.85 152.22-5.55Q152.22-4.75 152.63-4.34 153.03-3.93 153.8-3.93L153.8-3.93 160.9-3.93Q161.7-3.93 162.09-4.34 162.48-4.75 162.48-5.52L162.48-5.52 162.48-23.27 166.42-23.27ZM188.45-12.83L188.45-8.87 176.03-8.87 176.03-12.83 188.45-12.83ZM190.22-3.93L190.22 0 176.03 0Q175.21 0 174.24-0.29 173.27-0.58 172.45-1.23 171.62-1.89 171.07-2.94 170.52-3.99 170.52-5.52L170.52-5.52 170.52-19.72Q170.52-20.13 170.67-20.49 170.82-20.85 171.09-21.12 171.35-21.4 171.71-21.55 172.08-21.7 172.5-21.7L172.5-21.7 190.22-21.7 190.22-17.76 174.45-17.76 174.45-5.52Q174.45-4.75 174.86-4.34 175.27-3.93 176.06-3.93L176.06-3.93 190.22-3.93ZM211.34-23.27L211.34-5.52Q211.34-4.51 211.09-3.7 210.83-2.89 210.41-2.28 209.98-1.66 209.42-1.23 208.86-0.8 208.25-0.53 207.64-0.26 207.01-0.13 206.38 0 205.82 0L205.82 0 198.72 0Q197.71 0 196.91-0.26 196.11-0.51 195.49-0.95 194.88-1.38 194.45-1.94 194.02-2.5 193.75-3.11 193.47-3.72 193.35-4.35 193.22-4.98 193.22-5.52L193.22-5.52 193.22-10.85Q193.22-12.36 193.77-13.41 194.32-14.47 195.15-15.12 195.97-15.78 196.94-16.07 197.91-16.36 198.72-16.36L198.72-16.36 205.82-16.36 205.82-12.42 198.75-12.42Q197.97-12.42 197.56-12.02 197.15-11.62 197.15-10.85L197.15-10.85 197.15-5.55Q197.15-4.75 197.55-4.34 197.95-3.93 198.72-3.93L198.72-3.93 205.82-3.93Q206.62-3.93 207.02-4.34 207.41-4.75 207.41-5.52L207.41-5.52 207.41-23.27 211.34-23.27ZM219.09-23.27L219.09-19.72 215.16-19.72 215.16-23.27 219.09-23.27ZM219.09-16.36L219.09 0 215.16 0 215.16-16.36 219.09-16.36ZM237.73-16.36L237.73-12.42 230.86-12.42 230.86 0 226.88 0 226.88-12.42 221.77-12.42 221.77-16.36 226.88-16.36 226.88-21.7 230.86-21.7 230.86-16.36 237.73-16.36Z" transform="translate(-2.2799999713897705, 23.270000457763672)"></path></g>       </g></g> </g></mask><mask id="99e59120-230d-49f2-8920-ff611ce4fc88"><g fill="white"><rect data-gra="graph-name-bg" stroke-width="2" class="i-icon-bg" x="0" y="0" width="56" height="56" fill-opacity="1"></rect>   </g> <g transform="translate(5,5)" fill="black"><g class="iconsvg-imagesvg"><g> <svg x="0" y="0" width="46" height="46" class="image-svg-svg primary" style="overflow: visible;" filter="url(#colorsb1291080447)"><svg xmlns="http://www.w3.org/2000/svg" viewBox="0 0 68.1 68.1"><path d="M66.1 66.1H2V2h64.1v64.1zM2 23.4h10.7V2M2 34.1h21.4V2M2 44.7h32.1V2M2 55.4h42.7V2m10.7 0v64.1" fill="none" stroke="#333" stroke-width="4" stroke-miterlimit="10"></path></svg></svg> <defs>  </defs></g></g></g></mask><defs v-gra="od"></defs></svg>